<?xml version="1.0" encoding="iso-8859-1"?>
<!-- Generator: Adobe Illustrator 19.0.0, SVG Export Plug-In . SVG Version: 6.00 Build 0)  -->
<svg version="1.1" id="Capa_1" xmlns="http://www.w3.org/2000/svg" xmlns:xlink="http://www.w3.org/1999/xlink" x="0px" y="0px"
	 viewBox="0 0 512 512" style="enable-background:new 0 0 512 512;" xml:space="preserve">
<path style="fill:#98CDF4;" d="M179.2,59.733c0-28.279-22.921-51.2-51.2-51.2h-17.067c-28.279,0-51.2,22.921-51.2,51.2H179.2z"/>
<rect x="8.533" y="358.4" style="fill:#E69C5A;" width="494.933" height="145.067"/>
<polygon style="fill:#FFDECC;" points="273.067,324.267 213.333,324.267 179.2,324.267 119.467,324.267 59.733,324.267 
	25.6,324.267 8.533,324.267 8.533,358.4 503.467,358.4 503.467,324.267 443.733,324.267 "/>
<path style="fill:#98CDF4;" d="M153.6,213.333H85.333c-32.99,0-59.733,26.743-59.733,59.733v51.2h187.733v-51.2
	C213.333,240.077,186.59,213.333,153.6,213.333z"/>
<g>
	<path style="fill:#FFDECC;" d="M145.067,213.333v-40.96c-2.287,1.297-4.676,2.415-7.134,3.345c-0.725,0.29-1.476,0.521-2.227,0.768
		c-1.869,0.631-3.78,1.152-5.709,1.553c-0.785,0.162-1.553,0.35-2.347,0.478c-5.41,0.964-10.957,0.964-16.367,0
		c-0.794-0.128-1.562-0.316-2.347-0.478c-1.929-0.401-3.84-0.922-5.709-1.553c-0.751-0.247-1.502-0.478-2.227-0.768
		c-2.458-0.93-4.847-2.048-7.134-3.345v40.96H145.067z"/>
	<path style="fill:#FFDECC;" d="M108.937,177.997c0.785,0.162,1.553,0.35,2.347,0.478c2.705,0.461,5.444,0.7,8.183,0.725
		c2.739-0.017,5.478-0.265,8.183-0.725c0.794-0.128,1.57-0.316,2.347-0.478c1.929-0.41,3.84-0.922,5.709-1.553
		c0.751-0.247,1.502-0.478,2.227-0.768c16.58-6.4,28.638-20.966,31.829-38.451l9.438-51.891l-1.425,7.825L145.067,76.8
		L61.961,97.579l7.211,39.646c3.191,17.485,15.249,32.051,31.829,38.451c0.725,0.29,1.476,0.521,2.227,0.768
		C105.097,177.075,107.008,177.587,108.937,177.997z"/>
</g>
<g>
	<path style="fill:#E69C5A;" d="M177.775,93.158l1.425-7.825c-0.009-8.858-1.997-17.604-5.828-25.6H65.562
		c-3.831,7.996-5.82,16.742-5.828,25.6l2.227,12.245L145.067,76.8L177.775,93.158z"/>
	<path style="fill:#E69C5A;" d="M443.733,187.733h-51.2V230.4h-68.267v-42.667h-51.2v136.533h170.667V187.733z"/>
</g>
<g>
	<rect x="324.267" y="187.733" style="fill:#98CDF4;" width="68.267" height="42.667"/>
	<rect x="324.267" y="51.2" style="fill:#98CDF4;" width="68.267" height="42.667"/>
</g>
<path style="fill:#E69C5A;" d="M392.533,187.733h51.2V51.2h-51.2v42.667h-68.267V51.2h-51.2v136.533H392.533z"/>
<path d="M503.467,315.733h-51.2V51.2c0-4.71-3.823-8.533-8.533-8.533H273.067c-4.71,0-8.533,3.823-8.533,8.533v264.533h-42.667
	v-42.667c-0.043-37.683-30.583-68.224-68.267-68.267v-28.049c12.885-8.926,21.717-22.588,24.559-38.007l9.429-51.883
	c0.094-0.503,0.145-1.015,0.145-1.527c-0.026-6.537-1.007-13.03-2.918-19.285c1.835-1.587,2.901-3.891,2.918-6.315
	C187.699,26.761,160.973,0.034,128,0h-17.067C81.254,0.034,56.09,21.828,51.806,51.2H25.6v17.067h27.878
	c-1.485,5.564-2.253,11.307-2.278,17.067c0,0.512,0.051,1.024,0.145,1.527l9.387,51.883c2.859,15.42,11.699,29.09,24.602,38.007
	V204.8c-37.683,0.043-68.224,30.583-68.267,68.267v42.667H8.533c-4.71,0-8.533,3.823-8.533,8.533v179.2
	C0,508.177,3.823,512,8.533,512h494.933c4.71,0,8.533-3.823,8.533-8.533v-179.2C512,319.556,508.177,315.733,503.467,315.733z
	 M332.8,59.733H384v25.6h-51.2V59.733z M281.6,59.733h34.133v34.133c0,4.71,3.823,8.533,8.533,8.533h68.267
	c4.71,0,8.533-3.823,8.533-8.533V59.733H435.2V179.2H281.6V59.733z M332.8,196.267H384v25.6h-51.2V196.267z M281.6,196.267h34.133
	V230.4c0,4.71,3.823,8.533,8.533,8.533h68.267c4.71,0,8.533-3.823,8.533-8.533v-34.133H435.2v119.467H281.6V196.267z M204.8,273.067
	v42.667h-17.067v-42.667h-17.067v42.667H128V230.4l20.48,15.36l10.24-13.653l-13.653-10.24h8.533
	C181.862,221.892,204.774,244.804,204.8,273.067z M110.933,17.067H128c20.267,0.026,37.734,14.276,41.813,34.133H69.12
	C73.199,31.343,90.667,17.092,110.933,17.067z M167.68,68.267c1.348,3.755,2.236,7.663,2.662,11.631l-21.461-10.735
	c-1.818-0.905-3.908-1.135-5.879-0.64l-74.24,18.569l-0.495-2.5c0.085-5.572,1.092-11.085,2.987-16.324H167.68z M71.782,103.91
	l72.294-18.065l24.158,12.083l-6.827,37.769c-4.207,23.142-26.377,38.494-49.519,34.287c-17.451-3.174-31.113-16.828-34.287-34.287
	L71.782,103.91z M102.4,185.037c11.093,3.593,23.04,3.593,34.133,0V204.8H102.4V185.037z M34.133,273.067
	c0.026-28.262,22.938-51.174,51.2-51.2h8.533l-13.653,10.24l10.24,13.653l20.48-15.36v85.333H68.267v-42.667H51.2v42.667H34.133
	V273.067z M25.6,332.8h469.333v17.067H17.067V332.8H25.6z M17.067,494.933v-128h477.867v128H17.067z"/>
<rect x="298.667" y="290.133" width="17.067" height="17.067"/>
<rect x="332.8" y="290.133" width="17.067" height="17.067"/>
<rect x="366.933" y="290.133" width="17.067" height="17.067"/>
<rect x="298.667" y="153.6" width="17.067" height="17.067"/>
<rect x="332.8" y="153.6" width="17.067" height="17.067"/>
<rect x="366.933" y="153.6" width="17.067" height="17.067"/>
<g>
</g>
<g>
</g>
<g>
</g>
<g>
</g>
<g>
</g>
<g>
</g>
<g>
</g>
<g>
</g>
<g>
</g>
<g>
</g>
<g>
</g>
<g>
</g>
<g>
</g>
<g>
</g>
<g>
</g>
</svg>
