<?xml version="1.0" encoding="iso-8859-1"?>
<!-- Generator: Adobe Illustrator 19.0.0, SVG Export Plug-In . SVG Version: 6.00 Build 0)  -->
<svg version="1.1" id="Capa_1" xmlns="http://www.w3.org/2000/svg" xmlns:xlink="http://www.w3.org/1999/xlink" x="0px" y="0px"
	 viewBox="0 0 512 512" style="enable-background:new 0 0 512 512;" xml:space="preserve">
<g>
	<path style="fill:#BDC3C7;" d="M264.828,0c9.751,0,17.655,7.904,17.655,17.655v61.793H141.241V17.655
		C141.241,7.904,149.146,0,158.897,0H264.828z"/>
	<path style="fill:#CB8252;" d="M379.586,441.379v61.793c0,4.875-3.952,8.828-8.828,8.828H52.966c-4.875,0-8.828-3.952-8.828-8.828
		V61.793c0-4.875,3.952-8.828,8.828-8.828h317.793c4.875,0,8.828,3.952,8.828,8.828V441.379z"/>
	<path style="fill:#FFFFFF;" d="M344.276,167.724V97.103c0-4.875-3.952-8.828-8.828-8.828H88.276c-4.875,0-8.828,3.952-8.828,8.828
		v370.759c0,4.875,3.952,8.828,8.828,8.828h247.172c4.875,0,8.828-3.952,8.828-8.828V167.724z"/>
	<g>
		<path style="fill:#BDC3C7;" d="M323.619,241.346c2.341-0.001,4.586-0.931,6.241-2.586l99.046-99.046
			c3.345-3.464,3.298-8.97-0.108-12.375c-3.405-3.405-8.911-3.453-12.375-0.108l-99.046,99.046
			c-2.524,2.525-3.279,6.321-1.913,9.619C316.831,239.195,320.049,241.345,323.619,241.346z"/>
		<path style="fill:#BDC3C7;" d="M329.86,326.206c-2.216-2.295-5.499-3.215-8.585-2.407c-3.086,0.808-5.497,3.218-6.305,6.305
			c-0.808,3.086,0.112,6.368,2.407,8.585l99.046,99.046c3.464,3.345,8.97,3.298,12.375-0.108c3.405-3.405,3.453-8.911,0.108-12.375
			L329.86,326.206z"/>
		<path style="fill:#BDC3C7;" d="M344.276,273.655c-4.875,0-8.828,3.952-8.828,8.828s3.952,8.828,8.828,8.828h70.621
			c4.875,0,8.828-3.952,8.828-8.828s-3.952-8.828-8.828-8.828H344.276z"/>
		<path style="fill:#BDC3C7;" d="M192.68,189.025c-3.464-3.345-8.97-3.298-12.375,0.108c-3.405,3.405-3.453,8.911-0.108,12.375
			l37.252,37.252c3.464,3.345,8.97,3.298,12.375-0.108s3.453-8.911,0.108-12.375L192.68,189.025z"/>
		<path style="fill:#BDC3C7;" d="M217.45,326.206l-37.252,37.252c-2.295,2.216-3.215,5.499-2.407,8.585
			c0.808,3.086,3.218,5.497,6.305,6.305c3.086,0.808,6.369-0.112,8.585-2.407l37.252-37.252c2.295-2.216,3.215-5.499,2.407-8.585
			c-0.808-3.086-3.218-5.497-6.305-6.305C222.948,322.991,219.666,323.911,217.45,326.206z"/>
	</g>
	<g>
		<circle style="fill:#FF5364;" cx="273.655" cy="282.483" r="70.621"/>
		<circle style="fill:#FF5364;" cx="441.379" cy="114.759" r="26.483"/>
		<circle style="fill:#FF5364;" cx="167.724" cy="176.552" r="26.483"/>
		<circle style="fill:#FF5364;" cx="441.379" cy="282.483" r="26.483"/>
		<circle style="fill:#FF5364;" cx="441.379" cy="450.207" r="26.483"/>
		<circle style="fill:#FF5364;" cx="167.724" cy="388.414" r="26.483"/>
	</g>
</g>
<g>
</g>
<g>
</g>
<g>
</g>
<g>
</g>
<g>
</g>
<g>
</g>
<g>
</g>
<g>
</g>
<g>
</g>
<g>
</g>
<g>
</g>
<g>
</g>
<g>
</g>
<g>
</g>
<g>
</g>
</svg>
